<?xml version="1.0" standalone="no"?>
<svg version="1.0" xmlns="http://www.w3.org/2000/svg"
 width="512.000000pt" height="512.000000pt" viewBox="0 0 512.000000 512.000000"
 preserveAspectRatio="xMidYMid meet">

<g transform="translate(0.000000,512.000000) scale(0.100000,-0.100000)"
fill="currentColor" stroke="none">
<path d="M2325 5109 c-502 -51 -966 -238 -1358 -546 -107 -83 -362 -344 -444
-453 -268 -359 -437 -765 -499 -1205 -25 -174 -25 -519 -1 -690 63 -436 236
-852 500 -1204 93 -123 285 -321 412 -426 777 -639 1859 -765 2754 -319 259
129 437 254 640 449 214 207 369 414 502 669 248 479 339 1021 260 1554 -63
418 -232 820 -492 1169 -94 125 -366 397 -490 490 -352 263 -748 430 -1172
494 -153 23 -473 33 -612 18z m425 -1124 c436 -59 812 -306 1040 -681 139
-228 204 -465 204 -744 0 -247 -47 -442 -159 -658 -105 -203 -261 -383 -440
-511 -94 -67 -307 -176 -363 -187 -59 -11 -60 -8 -64 259 -3 224 -5 246 -27
300 -12 32 -38 78 -57 102 l-34 45 28 6 c168 36 329 115 421 205 224 221 254
596 69 852 l-35 47 15 68 c16 76 11 164 -15 256 l-16 59 -63 -6 c-76 -7 -200
-54 -272 -103 l-54 -36 -86 19 c-122 25 -440 26 -560 0 l-83 -18 -74 47 c-91
56 -199 94 -270 94 l-53 0 -16 -47 c-24 -70 -31 -181 -17 -265 l13 -73 -46
-68 c-25 -38 -57 -104 -72 -150 -23 -70 -27 -99 -28 -202 0 -203 52 -335 183
-466 107 -106 215 -161 409 -209 l43 -11 -36 -42 c-19 -22 -45 -67 -56 -98
l-21 -58 -55 -7 c-140 -17 -223 16 -297 120 -92 130 -185 190 -264 170 -55
-13 -48 -36 33 -97 70 -52 80 -66 130 -182 33 -77 82 -126 159 -161 52 -24 78
-28 174 -32 l112 -5 0 -147 c0 -175 -3 -181 -78 -161 -25 6 -89 33 -142 60
-522 259 -830 775 -807 1351 23 545 338 1015 839 1250 99 46 255 94 358 109
41 6 86 13 100 15 62 9 234 4 330 -9z"/>
</g>
</svg>
