<?xml version="1.0" encoding="utf-8"?>
<svg viewBox="0 0 20 20" xmlns="http://www.w3.org/2000/svg">
  <path d="M 9.999 0.013 C 4.484 0.013 0.011 4.483 0.011 9.997 C 0.011 15.511 4.484 19.979 9.999 19.979 C 15.516 19.979 19.988 15.511 19.988 9.997 C 19.988 4.483 15.516 0.013 9.999 0.013 Z M 7.555 14.134 L 5.532 14.134 L 5.532 7.629 L 7.555 7.629 L 7.555 14.134 Z M 6.531 6.83 C 5.892 6.83 5.479 6.377 5.479 5.818 C 5.479 5.247 5.905 4.808 6.556 4.808 C 7.209 4.808 7.609 5.247 7.621 5.818 C 7.621 6.377 7.209 6.83 6.531 6.83 Z M 14.942 14.134 L 12.92 14.134 L 12.92 10.529 C 12.92 9.69 12.626 9.121 11.894 9.121 C 11.335 9.121 11.004 9.506 10.858 9.878 C 10.803 10.009 10.79 10.196 10.79 10.383 L 10.79 14.133 L 8.766 14.133 L 8.766 9.703 C 8.766 8.891 8.74 8.212 8.713 7.628 L 10.47 7.628 L 10.563 8.531 L 10.603 8.531 C 10.87 8.107 11.522 7.481 12.613 7.481 C 13.945 7.481 14.942 8.372 14.942 10.287 L 14.942 14.134 Z"/>
</svg>